<?xml version="1.0"?>
<svg width="200" height="300" xmlns="http://www.w3.org/2000/svg" xmlns:svg="http://www.w3.org/2000/svg" xmlns:xlink="http://www.w3.org/1999/xlink">
 <!-- Created with SVG-edit - https://github.com/SVG-Edit/svgedit-->
 <defs>
  <symbol id="svg_1" viewBox="0 0 600 500" xmlns="http://www.w3.org/2000/svg">
   <g class="astronaut" id="svg_3">
    <g id="svg_4">
     <g id="svg_5">
      <g id="svg_6">
       <path d="m265,320.7c0,0 0.1,0 0.1,0l0.2,0c0,0 0,0 0,0l0.2,0c0,0 0,0 0,0l0,-16.1l-21.4,0c0.9,3.7 2.8,6.9 5.6,9.8c4.3,4.2 9.4,6.3 15.3,6.3m69.9,0c0,0 0.1,0 0.1,0c5.9,0 11,-2.1 15.2,-6.3c2.9,-2.9 4.7,-6.1 5.6,-9.8l-21.4,0l0,16.1l0.2,0c0,0 0,0 0,0l0,0l0,0l0.3,0m-63.1,-96.3c-4.3,0.9 -8.1,2.9 -11.4,6.2c-4.5,4.5 -6.7,9.9 -6.7,16.2l0,13.6c3.3,-2.1 7.1,-3.2 11.3,-3.2l0,0c0.9,0 1.7,0 2.6,0.1c-1.5,-3.9 -2.3,-8.2 -2.3,-12.7c0,-7.6 2.2,-14.3 6.5,-20.2m74.5,36l0,-13.6c0,-6.3 -2.2,-11.7 -6.7,-16.2c-3,-3 -6.5,-5.1 -10.4,-6l-0.2,0.8c3.9,5.6 5.8,12 5.8,19.2c0,4.2 -0.7,8.1 -2,11.8l0.1,0.8c0.7,-0.1 1.4,-0.1 2.2,-0.1l0,0c4.1,0.1 7.8,1.2 11.2,3.3z" fill="#CCCCCC" id="svg_7"/>
       <path d="m299.9,210.1c0,0 -0.1,0 -0.1,0c-9.5,0 -17.6,3.4 -24.3,10.1c-1.3,1.3 -2.5,2.7 -3.6,4.2c-4.3,5.9 -6.5,12.6 -6.5,20.3c0,4.6 0.8,8.8 2.3,12.7c0.2,0.6 0.5,1.2 0.8,1.8c1.7,3.6 4,6.9 7.1,9.9c3.3,3.3 6.8,5.7 10.7,7.4c0.1,0 0.2,0.1 0.2,0.1c0.8,0.3 1.6,0.7 2.5,0.9c3.4,1.1 7.1,1.7 11,1.7c9.5,0 17.7,-3.4 24.4,-10.1c3.6,-3.6 6.2,-7.5 7.9,-11.8c0.1,-0.3 0.2,-0.6 0.3,-0.9c1.3,-3.6 1.9,-7.6 1.9,-11.7c0,-7.2 -1.9,-13.5 -5.7,-19.1l-0.2,-0.2c0,0 0,-0.1 -0.1,-0.1l0,0l-0.1,-0.1l-0.1,-0.1c0,0 0,0 0,0l-0.1,-0.1c0,-0.1 -0.1,-0.1 -0.1,-0.2c0,0 0,-0.1 -0.1,-0.1c-1.1,-1.5 -2.3,-2.9 -3.7,-4.3c-6.8,-6.9 -14.9,-10.3 -24.4,-10.3m50.2,53.4c-1.2,-1.2 -2.5,-2.3 -3.9,-3.1c-3.3,-2.1 -7.1,-3.2 -11.3,-3.2l0,0c-0.7,0 -1.5,0 -2.2,0.1c-0.1,0 -0.2,0 -0.3,0c0,0 -0.1,0 -0.1,0l-0.3,-0.1c-1.7,4.3 -4.3,8.3 -7.9,11.8c-6.7,6.7 -14.9,10.1 -24.4,10.1c-3.9,0 -7.6,-0.6 -11,-1.7c-0.8,-0.3 -1.7,-0.6 -2.5,-0.9c-0.1,0 -0.2,-0.1 -0.2,-0.1c-3.9,-1.7 -7.5,-4.2 -10.7,-7.4c-3,-3 -5.4,-6.3 -7.1,-9.9c-0.3,-0.6 -0.5,-1.2 -0.8,-1.8c-0.8,-0.1 -1.7,-0.1 -2.6,-0.1l0,0c-4.2,0 -8,1.1 -11.3,3.2c-1.4,0.9 -2.7,1.9 -3.9,3.1c-4.2,4.2 -6.3,9.2 -6.3,15.2l0,20.6c0,1.9 0.2,3.7 0.6,5.4l21.4,0l0,-22.6l0,22.6l0,16.1l0,17.2c0.6,3.3 2.2,6.2 4.7,8.7c3.3,3.4 7.3,5 12,5c4.7,0 8.9,-1.8 12.7,-5.3c2.8,-2.6 4.5,-5.5 5,-8.7l0,-15.9l-12.7,0l13,0l13,0l-13,0l0,15.9c0.5,3.2 2.2,6.1 5,8.7c3.8,3.5 8,5.3 12.7,5.3c4.7,0 8.7,-1.7 12,-5c2.5,-2.5 4,-5.4 4.7,-8.7l0,-17.3l0,-16.1l0,-22.6l0,22.6l21.4,0c0.4,-1.7 0.6,-3.5 0.6,-5.4l0,-20.6c0,-5.8 -2.1,-10.9 -6.3,-15.1m-50.1,47.6l0,-30.1l0,30.1z" fill="#FFFFFF" id="svg_8"/>
       <path d="m299.7,195.5c-1.1,0 -2,0.4 -2.7,1.1c-0.7,0.7 -1.1,1.6 -1.1,2.7c0,1.1 0.4,2 1.1,2.7c0.7,0.7 1.6,1.1 2.7,1.1c1.1,0 2,-0.4 2.7,-1.1c0.7,-0.7 1.1,-1.6 1.1,-2.7c0,-1.1 -0.4,-2 -1.1,-2.7c-0.7,-0.8 -1.6,-1.1 -2.7,-1.1z" fill="#2D2D2D" id="svg_9"/>
      </g>
     </g>
     <path d="m355.8,304.6c0.4,-1.7 0.6,-3.5 0.6,-5.4l0,-20.6c0,-5.9 -2.1,-11 -6.3,-15.2c-1.2,-1.2 -2.5,-2.3 -3.9,-3.1c-3.3,-2.1 -7.1,-3.2 -11.3,-3.2l0,0c-0.7,0 -1.5,0 -2.2,0.1c-0.1,0 -0.2,0 -0.3,0c0,0 -0.1,0 -0.1,0m-0.2,0.1c-1.7,4.3 -4.3,8.3 -7.9,11.8c-6.7,6.7 -14.9,10.1 -24.4,10.1c-3.9,0 -7.6,-0.6 -11,-1.7c-0.8,-0.3 -1.7,-0.6 -2.5,-0.9c-0.1,0 -0.2,-0.1 -0.2,-0.1c-3.9,-1.7 -7.5,-4.2 -10.7,-7.4c-3,-3 -5.4,-6.3 -7.1,-9.9c-0.3,-0.6 -0.5,-1.2 -0.8,-1.8c-0.8,-0.1 -1.7,-0.1 -2.6,-0.1l0,0c-4.2,0 -8,1.1 -11.3,3.2c-1.4,0.9 -2.7,1.9 -3.9,3.1c-4.2,4.2 -6.3,9.2 -6.3,15.2l0,20.6c0,1.9 0.2,3.7 0.6,5.4l21.4,0l0,-22.6m80.9,-21.8l0,-13.6c0,-6.3 -2.2,-11.7 -6.7,-16.2c-3,-3 -6.5,-5.1 -10.4,-6m-0.3,0.8c3.9,5.6 5.8,12 5.8,19.2c0,4.2 -0.7,8.1 -2,11.8m-33,-53.3c-1.1,0 -2,-0.4 -2.7,-1.1c-0.7,-0.7 -1.1,-1.6 -1.1,-2.7c0,-1.1 0.4,-2 1.1,-2.7c0.7,-0.7 1.6,-1.1 2.7,-1.1c1.1,0 2,0.4 2.7,1.1c0.7,0.7 1.1,1.6 1.1,2.7c0,1.1 -0.4,2 -1.1,2.7c-0.7,0.7 -1.6,1.1 -2.7,1.1l0,7.1c0,0 0.1,0 0.1,0c9.5,0 17.7,3.4 24.4,10.1c1.4,1.4 2.6,2.8 3.7,4.3c0,0 0,0.1 0.1,0.1c0,0.1 0.1,0.1 0.1,0.2l0.1,0.1c0,0 0,0 0,0c0,0 0.1,0.1 0.1,0.1c0,0 0,0 0,0c0,0 0,0 0,0l0.1,0.1l0,0c0,0 0,0 0.1,0.1l0.2,0.2c3.8,5.6 5.7,12 5.7,19.1c0,4.2 -0.6,8.1 -1.9,11.7c-0.1,0.3 -0.2,0.6 -0.3,0.9m-3,-32.6l0,0c-0.1,0 -0.1,0 0,0c-0.1,0 -0.1,0 0,0c-0.3,-0.1 -0.6,-0.1 -0.8,-0.2c0,0 -0.1,0 -0.2,0c0,0 0,0.1 0.1,0.1c0,0 0,0.1 0,0.1c0.1,0.1 0.2,0.3 0.3,0.4c0,0 0,0 0,0l0,0c0.1,0.1 0.2,0.3 0.3,0.4c0,0 0,0 0,0m-57.1,-1c1.1,-1.4 2.3,-2.8 3.6,-4.2c6.7,-6.7 14.8,-10.1 24.3,-10.1m-46,50.3l0,-13.6c0,-6.3 2.2,-11.7 6.7,-16.2c3.3,-3.3 7.1,-5.4 11.4,-6.2c-4.3,5.9 -6.5,12.6 -6.5,20.3c0,4.6 0.8,8.8 2.3,12.7m65.1,-0.9c0,0 0,0 0,0l0,0c0,0 0,0.1 0,0.1c0,0 0,0 0,0.1l-0.2,0.5c0,0.1 -0.1,0.1 -0.1,0.2m2.3,63.3l0.2,0c0,0 0.1,0 0.1,0c5.9,0 11,-2.1 15.2,-6.3c2.9,-2.9 4.7,-6.1 5.6,-9.8l-21.4,0l0,16.1l0.2,0m0,0l0,0m-47.3,1.1l12.7,0l13,0m-13,16c0.5,3.2 2.2,6.1 5,8.7c3.8,3.5 8,5.3 12.7,5.3c4.7,0 8.7,-1.7 12,-5c2.5,-2.5 4,-5.4 4.7,-8.7l0,-17.3m-68.8,-0.1l0,17.3c0.6,3.3 2.2,6.2 4.7,8.7c3.3,3.4 7.3,5 12,5c4.7,0 8.9,-1.8 12.7,-5.3c2.8,-2.6 4.5,-5.5 5,-8.7l0,-15.9m-34.4,-1.1c0,0 0,0 0,0l-0.3,0c0,0 0,0 0,0l-0.2,0c0,0 -0.1,0 -0.1,0c-5.9,0 -11,-2.1 -15.2,-6.3c-2.9,-2.9 -4.7,-6.1 -5.6,-9.8m21.4,0l0,16.1m68.8,-38.6l0,22.6m-34.4,6.4l0,-30.1" fill="none" id="svg_10" stroke="#2D2D2D" stroke-linecap="round" stroke-linejoin="round" stroke-width="4"/>
    </g>
    <g id="svg_11">
     <path d="m324.5,261.6c6.8,-4.3 10.2,-9.5 10.2,-15.5c0,-5.1 -2.4,-9.6 -7.2,-13.4l-55.5,0c-4.8,3.8 -7.3,8.3 -7.3,13.4c0,6.1 3.4,11.2 10.2,15.5c6.8,4.3 15.1,6.4 24.7,6.4c9.8,0 18,-2.1 24.9,-6.4z" fill="#7592A0" id="svg_12"/>
    </g>
    <path d="m334.7,246.1c0,6.1 -3.4,11.2 -10.2,15.5c-6.8,4.3 -15.1,6.4 -24.7,6.4c-9.7,0 -17.9,-2.1 -24.7,-6.4c-6.8,-4.3 -10.2,-9.5 -10.2,-15.5c0,-5.1 2.4,-9.6 7.3,-13.4l55.5,0c4.6,3.8 7,8.3 7,13.4z" fill="none" id="svg_13" stroke="#2D2D2D" stroke-linecap="round" stroke-linejoin="round" stroke-width="4"/>
    <path d="m323.5,240.6c2.4,3.5 2.4,7.8 0,12.7m-47.7,-12.7c-2.4,3.5 -2.4,7.8 0,12.7" fill="none" id="svg_14" stroke="#E6E6E6" stroke-linecap="round" stroke-linejoin="round" stroke-width="4"/>
   </g>
  </symbol>
 </defs>
 <g class="layer">
  <title>Layer 1</title>
  <use id="svg_2" transform="matrix(4.95966 0 0 4.95966 302.679 -239.794)" x="-140.72" xlink:href="#svg_1" y="-80.03"/>
 </g>
</svg>